<svg width="512" height="512" viewBox="0 0 512 512" fill="none" xmlns="http://www.w3.org/2000/svg">
<rect width="512" height="512" fill="black"/>
<rect width="448" height="448" transform="translate(32 32)" fill="#1571A5"/>
<rect x="164" y="306" width="144" height="12" fill="black"/>
<rect x="71" y="309.823" width="120" height="12" transform="rotate(-45 71 309.823)" fill="black"/>
<rect x="79.4853" y="148" width="120" height="12" transform="rotate(45 79.4853 148)" fill="black"/>
<path d="M67.954 367.294H88.13C96.7953 367.294 103.197 370.172 107.336 375.927C111.539 381.682 113.641 390.089 113.641 401.147C113.641 412.205 111.539 420.612 107.336 426.367C103.197 432.122 96.7953 435 88.13 435H67.954V367.294ZM87.451 426.076C92.4303 426.076 96.1163 424.427 98.509 421.129C100.966 417.766 102.195 412.981 102.195 406.773V395.521C102.195 389.313 100.966 384.56 98.509 381.262C96.1163 377.899 92.4303 376.218 87.451 376.218H78.721V426.076H87.451ZM145.419 436.164C141.604 436.164 138.176 435.55 135.137 434.321C132.098 433.092 129.543 431.346 127.474 429.083C125.405 426.82 123.82 424.104 122.721 420.935C121.622 417.702 121.072 414.08 121.072 410.071C121.072 406.062 121.622 402.44 122.721 399.207C123.885 395.974 125.469 393.225 127.474 390.962C129.543 388.634 132.033 386.856 134.943 385.627C137.853 384.398 141.086 383.784 144.643 383.784C148.135 383.784 151.304 384.398 154.149 385.627C156.994 386.791 159.419 388.472 161.424 390.671C163.429 392.87 164.948 395.489 165.983 398.528C167.082 401.567 167.632 404.93 167.632 408.616V412.593H131.742V414.242C131.742 418.187 132.971 421.42 135.428 423.942C137.885 426.399 141.28 427.628 145.613 427.628C148.846 427.628 151.595 426.949 153.858 425.591C156.186 424.168 158.061 422.293 159.484 419.965L166.08 425.785C164.399 428.695 161.812 431.152 158.32 433.157C154.893 435.162 150.592 436.164 145.419 436.164ZM144.643 391.835C142.768 391.835 141.022 392.158 139.405 392.805C137.853 393.452 136.495 394.389 135.331 395.618C134.232 396.782 133.359 398.172 132.712 399.789C132.065 401.406 131.742 403.184 131.742 405.124V405.803H156.865V404.833C156.865 400.888 155.733 397.752 153.47 395.424C151.271 393.031 148.329 391.835 144.643 391.835ZM193.105 435L175.16 384.948H186.121L193.008 406.094L199.507 426.173H200.089L206.588 406.094L213.475 384.948H224.048L206.103 435H193.105ZM233.031 435L228.181 367.294H237.687L240.112 406.676L241.179 424.039H241.955L249.618 383.687H260.385L268.048 424.039H268.824L269.891 406.676L272.413 367.294H281.531L276.681 435H262.131L255.244 395.812H254.468L247.581 435H233.031ZM313.212 375.83C310.496 375.83 308.589 375.28 307.489 374.181C306.455 373.082 305.937 371.724 305.937 370.107V368.07C305.937 366.453 306.455 365.095 307.489 363.996C308.589 362.897 310.464 362.347 313.115 362.347C315.831 362.347 317.707 362.897 318.741 363.996C319.841 365.095 320.39 366.453 320.39 368.07V370.107C320.39 371.724 319.841 373.082 318.741 374.181C317.707 375.28 315.864 375.83 313.212 375.83ZM290.805 426.464H307.877V393.484H290.805V384.948H318.45V426.464H334.455V435H290.805V426.464ZM344.797 363.22H355.37V406.579H355.855L363.712 398.528L377.777 384.948H390.29L370.017 404.639L392.521 435H379.814L362.354 410.653L355.37 417.152V435H344.797V363.22ZM423.717 375.83C421.001 375.83 419.093 375.28 417.994 374.181C416.959 373.082 416.442 371.724 416.442 370.107V368.07C416.442 366.453 416.959 365.095 417.994 363.996C419.093 362.897 420.968 362.347 423.62 362.347C426.336 362.347 428.211 362.897 429.246 363.996C430.345 365.095 430.895 366.453 430.895 368.07V370.107C430.895 371.724 430.345 373.082 429.246 374.181C428.211 375.28 426.368 375.83 423.717 375.83ZM401.31 426.464H418.382V393.484H401.31V384.948H428.955V426.464H444.96V435H401.31V426.464Z" fill="#FEFAD8"/>
</svg>
